<svg id="Layer_1" data-name="Layer 1" xmlns="http://www.w3.org/2000/svg" viewBox="0 0 94 136"><defs><style>.cls-1{fill:#3b562e;}.cls-2{fill:#b7352c;}</style></defs><path class="cls-1" d="M23.087,7.321a1.512,1.512,0,0,0-.348-.989,1.059,1.059,0,0,0-.847-.424,18.9,18.9,0,0,0-2.542.3q-1.848.3-3.945.815a27.021,27.021,0,0,0-3.662,1.141.921.921,0,0,0-.466.457,1.613,1.613,0,0,0-.164.739,2.009,2.009,0,0,0,.25,1.021.747.747,0,0,0,.663.435l.217-.044a26.156,26.156,0,0,1,3.249-.858q1.859-.381,3.532-.62-2.782,5.238-3.955,7.531T13.46,20.186a3.078,3.078,0,0,0-.348,1.477,1.988,1.988,0,0,0,.5.968,1.133,1.133,0,0,0,.827.424,1.259,1.259,0,0,0,1.14-.685,9.281,9.281,0,0,0,.772-1.858l.239-.7a38.487,38.487,0,0,1,1.684-3.9q.75-1.443,2.814-4.878l.369-.608q1.326-2.153,1.5-2.521A1.488,1.488,0,0,0,23.087,7.321Z"/><path class="cls-2" d="M74.706,102.077a2.834,2.834,0,0,0-1.445-1.742,12.182,12.182,0,0,0-6.53-2.185,10.679,10.679,0,0,0-2.145.225,110.393,110.393,0,0,1-11.288,1.5c-1.654.162-3.363.33-5.074.532-.595.071-1.065.126-1.377.126a1.227,1.227,0,0,1-.257-.02,7.472,7.472,0,0,1-.024-1.6,9.2,9.2,0,0,1,.207-1.644c1.848-.259,3.752-.383,5.6-.5l1.061-.07a2.064,2.064,0,0,0,1.646,1.127c.888,0,1.486-.814,1.908-1.522.79-1.328,1.491-2.726,2.17-4.077q.306-.61.615-1.219c.392-.767.718-1.571,1.033-2.347a11.663,11.663,0,0,1,2.975-4.876,1.962,1.962,0,0,0,.185-2.127c-1.071-1.86-4.95-3.516-7.257-3.516a4.308,4.308,0,0,0-.715.057c-1.067.186-2.133.382-3.2.578-2.726.5-5.545,1.019-8.328,1.351-3.236.387-6.549.648-9.754.9-1.579.125-3.213.253-4.819.4a7.378,7.378,0,0,0-1.141.225c-.21.053-.443.111-.713.171a.663.663,0,0,0-.347,1.091c2.691,2.965,3.714,6.537,4.7,9.992.262.915.533,1.862.831,2.784l.082.257a6.837,6.837,0,0,0,.908,2.049,2.447,2.447,0,0,0,1.819.844,1.639,1.639,0,0,0,.258-.019,18.9,18.9,0,0,0,2.018-.47,17.021,17.021,0,0,1,1.93-.448,12.893,12.893,0,0,1,1.63-.189.886.886,0,0,1,.3.031h0A6.309,6.309,0,0,1,42.33,99.6l0,.188c.024,1.12-.224,1.4-1.331,1.507-2.041.195-4.1.466-6.1.727-1.179.154-2.4.314-3.6.456-.425.05-.851.11-1.276.17a21.635,21.635,0,0,1-3.022.288,6.943,6.943,0,0,1-2.986-.6,1.76,1.76,0,0,0-.755-.145c-.176,0-.352.016-.522.031s-.321.03-.47.03a.662.662,0,0,0-.633.855c.226.737.466,1.43.7,2.1a21.258,21.258,0,0,1,1.095,3.923c.293,2.1.412,4.27.528,6.37.056,1.025.114,2.084.192,3.126.014.184.022.373.031.562a5.619,5.619,0,0,0,.412,2.252,6.323,6.323,0,0,0,1.364,1.687c.207.2.4.394.58.591a.663.663,0,0,0,.491.219.607.607,0,0,0,.085-.006.662.662,0,0,0,.5-.352c.123-.238.259-.472.395-.707a8.126,8.126,0,0,0,.879-1.877,7.5,7.5,0,0,0,.108-2.5l-.105-1.534c-.212-3.129-.432-6.364-.748-9.541-.1-1.035.051-1.143.878-1.234,1.629-.181,3.277-.4,4.871-.613,2.056-.274,4.181-.557,6.273-.757.423-.04.783-.085,1.092-.123a8.6,8.6,0,0,1,.89-.086l.067,0a10.654,10.654,0,0,1,.035,1.586l-.007.545c-.019,1.607-.031,2.576-.334,2.9s-1.34.4-2.9.512c-1.52.11-3.041.21-4.569.31l-2.134.141a.661.661,0,0,0-.592.841,5.244,5.244,0,0,0,4.91,3.67,3.99,3.99,0,0,0,1.209-.182c3.839-1.217,7.809-2.475,11.821-3.629a11.869,11.869,0,0,1,2.689-.6c.775,0,1.126.464,2.486,2.429l.036.051c.037.053.072.108.108.163a2.864,2.864,0,0,0,.486.612,2.425,2.425,0,0,0,1.584.707,1.819,1.819,0,0,0,1.635-1.129,5.143,5.143,0,0,0,.6-2.718c-.293-2.619-4.507-5.963-7.516-5.963-.1,0-.2,0-.3.012a.661.661,0,0,0-.57.886l.767,2.1-.572.122c-.881.189-1.71.367-2.54.534a12.707,12.707,0,0,1-1.955.313,1.186,1.186,0,0,1-.206-.016h0a7.428,7.428,0,0,1-.1-2.123c.005-.227.011-.453.018-.68.012-.439.024-.877.025-1.316,0-.494.084-.633.675-.669.856-.054,1.715-.148,2.546-.239.679-.075,1.382-.152,2.069-.205q1.483-.114,2.967-.238c2.964-.241,6.029-.491,9.041-.6q.249-.009.48-.009a3.239,3.239,0,0,1,2.368.621,3.638,3.638,0,0,1,.543,2.649,64.152,64.152,0,0,1-1.119,8.895c-.377,2.052-.852,2.276-1.772,2.276a8,8,0,0,1-1.505-.185c-.512-.1-1.036-.231-1.543-.357-.438-.109-.89-.221-1.344-.317a5.037,5.037,0,0,0-.9-.085c-.089,0-.173,0-.249-.009l-.045,0a.662.662,0,0,0-.509,1.085q.78.938,1.546,1.87c1.641,1.993,3.192,3.876,4.862,5.73a1.839,1.839,0,0,0,1.357.453,2.752,2.752,0,0,0,1.473-.386A10.436,10.436,0,0,0,71.6,118.3c.374-2.1.632-4.24.881-6.314.177-1.475.36-3,.584-4.489a7.8,7.8,0,0,1,.97-3.248A2.778,2.778,0,0,0,74.706,102.077Zm-37.615-7.43c-.641-2.682-1.218-5.356-1.828-8.185l-.366-1.7,1.143-.184c1.906-.308,3.708-.6,5.526-.828a1.167,1.167,0,0,1,.346.289,11.063,11.063,0,0,1,.352,3.009,1.893,1.893,0,0,1-.825.528,24.915,24.915,0,0,1-2.662.5c-.416.063-.847.128-1.3.2a.662.662,0,0,0-.452,1,3.193,3.193,0,0,0,2.951,1.558c.165.009.329.017.49.036s.328.034.512.052c.334.032.9.086,1.2.154a13.237,13.237,0,0,1,.025,2.839l-.014.235a.935.935,0,0,1-.234.095l-.16.029c-1.373.247-2.793.5-4.178.617A1.15,1.15,0,0,1,37.091,94.647Zm13.188-1.485c-.843.053-1.715.108-2.576.23a3.99,3.99,0,0,1-.544.046c-.288,0-.346-.059-.348-.062s-.124-.14-.076-.777c.02-.272.036-.517.051-.736a5.593,5.593,0,0,1,.173-1.394,3.486,3.486,0,0,1,.835-.236c.291-.064.64-.141,1.062-.25a29.119,29.119,0,0,0,2.8-.931c.47-.174.965-.357,1.5-.543a.662.662,0,0,0,.237-1.105,5.166,5.166,0,0,0-3.731-1.551,12.719,12.719,0,0,0-2.186.254c-.19.033-.383.067-.577.1,0-.134,0-.268,0-.4-.012-.974-.023-1.9.048-2.8a1.151,1.151,0,0,1,.452-.266c2.888-.23,5.232-.358,7.376-.405h.056a1.244,1.244,0,0,1,.993.355,1.172,1.172,0,0,1,.122.97c-.666,2.96-1.422,5.9-2.246,8.73a1.566,1.566,0,0,1-.905.546C51.965,93.056,51.108,93.11,50.279,93.162Z"/><path class="cls-2" d="M26.952,75.409c1.564-.3,3.173-.543,4.729-.776,1.442-.216,2.932-.44,4.394-.711a3.926,3.926,0,0,1,.714-.076c.559,0,1.043.1,1.308,1.374a16.3,16.3,0,0,0,.894,2.688c.148.371.3.741.431,1.115a.661.661,0,0,0,.622.437h.046l.662-.047a.662.662,0,0,0,.575-.433c.059-.163.13-.324.2-.486a4.48,4.48,0,0,0,.427-1.388,8.245,8.245,0,0,0-.137-2.859,1.3,1.3,0,0,1-.036-.907c.074-.108.319-.249,1.059-.314,1.155-.1,2.319-.248,3.445-.391.864-.109,1.757-.223,2.634-.313.729-.075,1.464-.106,2.315-.143l.337-.014-1.864,4.942a.663.663,0,0,0,.24.776l.378.265a.661.661,0,0,0,.831-.06c.236-.221.478-.437.721-.652a16.83,16.83,0,0,0,1.648-1.606c.5-.582.95-1.2,1.388-1.8.427-.581.868-1.183,1.335-1.73a1.966,1.966,0,0,1,1.056-.712c3.316-.08,6.692-.09,9.958-.1l2.45-.008c.276,0,.554.013.831.025.3.013.594.026.889.026a7.217,7.217,0,0,0,.783-.038,1.745,1.745,0,0,0,1.581-.93,1.778,1.778,0,0,0-.4-1.825,5.43,5.43,0,0,0-4.421-2.424c-.134,0-.27.006-.407.016-1.737.132-3.483.388-5.171.635-.685.1-1.37.2-2.055.293-.782.105-1.563.217-2.344.329l-.274.039.092-.136c.4-.594.817-1.209,1.257-1.775a2.822,2.822,0,0,0,.71-2.207,2.56,2.56,0,0,0-1.267-1.7A24.807,24.807,0,0,0,55.8,59.794a2.954,2.954,0,0,0-1.129-.283,1.2,1.2,0,0,0-.9.363,2.469,2.469,0,0,0-.42,1.833,49.818,49.818,0,0,1-.128,4.993l-.047.8c-.035.626-.281,1.066-1.365,1.181-2.018.214-4.061.473-6.037.724q-.924.117-1.849.234a18.516,18.516,0,0,1-1.935.186c-.7,0-.756,0-.8-2.562-.036-1.922-.893-3.071-2.545-3.416a23.613,23.613,0,0,0-3.519-.515l-.08,0a2.677,2.677,0,0,0-1.254.42c-.14.075-.273.147-.393.2a.662.662,0,0,0-.318.94c.071.123.139.247.208.371.157.283.32.576.507.862.749,1.142,1.5,2.281,2.355,3.563l.47.708-.149.029a9.644,9.644,0,0,1-1.2.188q-3.054.186-6.11.355-3.624.207-7.248.426a9.643,9.643,0,0,0-1.494.248c-.206.046-.413.092-.62.131a.661.661,0,0,0-.331,1.133,8.423,8.423,0,0,0,5.921,2.659A8.329,8.329,0,0,0,26.952,75.409Z"/><path d="M48.691,26.963c2.9-.891,5.5-1.624,7.947-2.24,1.6-.4,3.247-.772,4.837-1.128,1.2-.268,2.434-.545,3.648-.836a3.127,3.127,0,0,0,.995-.5c.109-.073.219-.146.331-.21a.573.573,0,0,0,.179-.837c-.077-.1-.147-.214-.218-.325a3.452,3.452,0,0,0-.69-.851,4.128,4.128,0,0,0-2.628-.957,4.606,4.606,0,0,0-1.423.233c-1.73.561-3.465,1.189-5.144,1.8q-.667.243-1.337.483c-1.754.631-3.505,1.268-5.332,1.933l-1.752.638-.005-.3c-.013-.671-.024-1.25.022-1.812.08-.99.1-1.995.123-2.967a18.952,18.952,0,0,1,1.065-7.156,1.973,1.973,0,0,0-.207-1.569c-.74-1.3-3.52-2.424-5.277-2.424a3.3,3.3,0,0,0-.783.085.572.572,0,0,0-.392.778c.059.142.121.281.181.419.124.283.242.55.334.819.113.328.244.654.37.97a7.406,7.406,0,0,1,.626,2.12c.187,2.511.3,5.074.405,7.552.058,1.334.116,2.668.185,4,.027.514-.106.684-.644.826-4.324,1.138-8.916,2.362-14.89,3.969a6.439,6.439,0,0,0-.941.364c-.187.084-.4.179-.661.287a.572.572,0,0,0-.065,1.026,9.048,9.048,0,0,0,4.394,1.594,4.737,4.737,0,0,0,1.772-.348c.75-.3,1.5-.616,2.23-.924.953-.4,1.939-.821,2.918-1.189,1.494-.563,3.04-1.1,4.536-1.614l1.323-.458c.055.493.107.975.157,1.45.162,1.5.314,2.923.516,4.341.609,4.263,2.978,6.667,7.041,7.145a28.4,28.4,0,0,0,3.316.179c1.657,0,3.341-.116,4.769-.229a11.179,11.179,0,0,0,4.264-1.346C65.592,39.316,66.7,38,66.535,37a31.174,31.174,0,0,0-1.2-4.446c-.193-.6-.393-1.219-.584-1.857a.572.572,0,0,0-.548-.408h-.009a.574.574,0,0,0-.545.426l-.3,1.139c-.2.735-.37,1.383-.537,2.034A4,4,0,0,1,59,37.2c-1.914.15-3.6.223-5.158.223-.456,0-.909-.006-1.347-.019a3.4,3.4,0,0,1-3.381-2.6,46.424,46.424,0,0,1-.938-6.519L48.1,27.5A1.383,1.383,0,0,1,48.691,26.963Z"/></svg>