<svg xmlns="http://www.w3.org/2000/svg" width="24" height="24" viewBox="0 0 24 24" fill="currentColor" class="icon icon-tabler icons-tabler-filled icon-tabler-info-circle">
  <path stroke="none" d="M0 0h24v24H0z" fill="none" />
  <path fill-rule="evenodd" d="M12 2a10 10 0 1 1 0 20a10 10 0 0 1 0 -20zm0 13a1 1 0 0 0 -.993 .883l-.007 .117v.01a1 1 0 0 0 1.993 .107l.007 -.117v-.01a1 1 0 0 0 -1 -1zm0 -8a1.25 1.25 0 0 0 -1.244 1.128l-.006 .122v4.5a1.25 1.25 0 0 0 2.494 .122l.006 -.122v-4.5a1.25 1.25 0 0 0 -1.25 -1.25z" />
</svg>
