<?xml version="1.0" encoding="UTF-8"?>
<svg xmlns="http://www.w3.org/2000/svg" viewBox="0 0 94 136">
	<title>b-5 generic preprocessed face</title>
	<desc>
		Preprocessed path-only face generated by generic analog-component matching.
		Reference PNG components provide target position and color; source SVG components provide path geometry.
		Grouping gap: 0.
		Match status: matched.
	</desc>
	<g id="face-art" data-match-status="matched">
		<path fill="#2FC906" transform="matrix(0.63377 0 0 0.63377 140.543063 -207.926164)" id="face-art-part-1-1" data-reference-color="#2FC906" data-source-id="" data-source-class="st7" d="M-136.8,362.9c3.2-0.8,4.8-1.9,4.8-3.2c0-1.2-1.6-2.2-4.8-3.1c-3.2-0.9-6.9-1.4-11.3-1.4
						c-4.4,0-8.1,0.5-11.3,1.4c-3.1,0.9-4.7,2-4.7,3.1c0,1.3,1.6,2.4,4.7,3.2c0.2,0.1,0.5,0.1,0.9,0.2v28.8c-0.4,0.1-0.7,0.1-0.9,0.2
						c-3.1,1-4.7,2-4.7,3.2c0,1.3,1.6,2.4,4.7,3.2c0.2,0.1,0.5,0.1,0.9,0.2v28.8c-0.4,0.1-0.7,0.1-0.9,0.2c-3.1,0.9-4.7,1.9-4.7,3.2
						c0,1.3,1.6,2.4,4.7,3.2c3.1,0.8,6.9,1.2,11.3,1.2c4.3,0,8.1-0.4,11.3-1.2c3.2-0.8,4.8-1.9,4.8-3.2c0-1.2-1.6-2.3-4.8-3.2
						c-0.4-0.1-0.9-0.3-1.3-0.3v-28.6c0.4-0.1,0.9-0.3,1.3-0.3c3.2-0.8,4.8-1.9,4.8-3.2c0-1.2-1.6-2.2-4.8-3.2
						c-0.4-0.1-0.9-0.2-1.3-0.3v-28.6C-137.7,363.1-137.2,362.9-136.8,362.9z M-141.2,432.2c-2,0.4-4.2,0.6-6.8,0.6
						c-2.6,0-4.9-0.2-6.8-0.6c-1.9-0.4-2.8-0.9-2.8-1.6c0-0.6,1-1.1,2.9-1.6c0.7-0.1,1.5-0.3,2.4-0.4v-29c1.3,0.1,2.7,0.1,4.3,0.1
						s3,0,4.5-0.1v29.1c0.8,0.1,1.6,0.2,2.3,0.3c2,0.5,3,1.1,3,1.6C-138.2,431.3-139.2,431.8-141.2,432.2z M-141.2,396.9
						c-2,0.4-4.2,0.6-6.8,0.6c-2.6,0-4.9-0.2-6.8-0.6c-1.9-0.4-2.8-0.9-2.8-1.6c0-0.6,0.9-1.1,2.8-1.6c1.9-0.5,4.1-0.7,6.8-0.7
						c2.6,0,4.8,0.2,6.8,0.7c2,0.5,3,1,3,1.6C-138.2,395.9-139.2,396.5-141.2,396.9z M-141.2,361.3c-0.7,0.2-1.5,0.4-2.3,0.4V391
						c-1.5-0.1-3-0.2-4.5-0.2s-3,0-4.3,0.1v-29.1c-0.9-0.1-1.7-0.2-2.4-0.4c-1.9-0.4-2.9-0.9-2.9-1.5c0-0.6,0.9-1.1,2.8-1.6
						c1.9-0.5,4.1-0.7,6.8-0.7c2.6,0,4.8,0.2,6.8,0.7c2,0.5,3,1,3,1.6C-138.2,360.5-139.2,361-141.2,361.3z"/>
		<path fill="#2FC906" transform="matrix(0.65782 0 0 0.65782 114.653239 -217.431926)" id="face-art-part-2-1" data-reference-color="#2FC906" data-source-id="" data-source-class="st7" d="M-48.9,362.9c3.2-0.8,4.8-1.9,4.8-3.2c0-1.2-1.6-2.2-4.8-3.1c-3.2-0.9-6.9-1.4-11.3-1.4
						c-4.4,0-8.1,0.5-11.3,1.4c-3.1,0.9-4.7,2-4.7,3.1c0,1.3,1.6,2.4,4.7,3.2c0.2,0.1,0.5,0.1,0.9,0.2v28.8c-0.4,0.1-0.7,0.1-0.9,0.2
						c-3.1,1-4.7,2-4.7,3.2c0,1.3,1.6,2.4,4.7,3.2c0.2,0.1,0.5,0.1,0.9,0.2v28.8c-0.4,0.1-0.7,0.1-0.9,0.2c-3.1,0.9-4.7,1.9-4.7,3.2
						c0,1.3,1.6,2.4,4.7,3.2c3.1,0.8,6.9,1.2,11.3,1.2c4.3,0,8.1-0.4,11.3-1.2c3.2-0.8,4.8-1.9,4.8-3.2c0-1.2-1.6-2.3-4.8-3.2
						c-0.4-0.1-0.9-0.3-1.3-0.3v-28.6c0.4-0.1,0.9-0.3,1.3-0.3c3.2-0.8,4.8-1.9,4.8-3.2c0-1.2-1.6-2.2-4.8-3.2
						c-0.4-0.1-0.9-0.2-1.3-0.3v-28.6C-49.8,363.1-49.3,362.9-48.9,362.9z M-53.3,432.2c-2,0.4-4.2,0.6-6.8,0.6
						c-2.6,0-4.9-0.2-6.8-0.6c-1.9-0.4-2.8-0.9-2.8-1.6c0-0.6,1-1.1,2.9-1.6c0.7-0.1,1.5-0.3,2.4-0.4v-29c1.3,0.1,2.7,0.1,4.3,0.1
						s3,0,4.5-0.1v29.1c0.8,0.1,1.6,0.2,2.3,0.3c2,0.5,3,1.1,3,1.6C-50.3,431.3-51.3,431.8-53.3,432.2z M-53.3,396.9
						c-2,0.4-4.2,0.6-6.8,0.6c-2.6,0-4.9-0.2-6.8-0.6c-1.9-0.4-2.8-0.9-2.8-1.6c0-0.6,0.9-1.1,2.8-1.6c1.9-0.5,4.1-0.7,6.8-0.7
						c2.6,0,4.8,0.2,6.8,0.7c2,0.5,3,1,3,1.6C-50.3,395.9-51.3,396.5-53.3,396.9z M-53.3,361.3c-0.7,0.2-1.5,0.4-2.3,0.4V391
						c-1.5-0.1-3-0.2-4.5-0.2s-3,0-4.3,0.1v-29.1c-0.9-0.1-1.7-0.2-2.4-0.4c-1.9-0.4-2.9-0.9-2.9-1.5c0-0.6,0.9-1.1,2.8-1.6
						c1.9-0.5,4.1-0.7,6.8-0.7c2.6,0,4.8,0.2,6.8,0.7c2,0.5,3,1,3,1.6C-50.3,360.5-51.3,361-53.3,361.3z"/>
		<path fill="#2FC906" transform="matrix(0.660028 0 0 0.660028 87.303962 -192.292506)" id="face-art-part-3-1" data-reference-color="#2FC906" data-source-id="" data-source-class="st8" d="M-92.8,409.2c3.2-0.8,4.8-1.9,4.8-3.2c0-1.2-1.6-2.2-4.8-3.1c-3.2-0.9-6.9-1.4-11.3-1.4
						c-4.4,0-8.1,0.5-11.3,1.4c-3.1,0.9-4.7,2-4.7,3.1c0,1.3,1.6,2.4,4.7,3.2c0.2,0.1,0.5,0.1,0.9,0.2v28.8c-0.4,0.1-0.7,0.1-0.9,0.2
						c-3.1,1-4.7,2-4.7,3.2c0,1.3,1.6,2.4,4.7,3.2c0.2,0.1,0.5,0.1,0.9,0.2v28.8c-0.4,0.1-0.7,0.1-0.9,0.2c-3.1,0.9-4.7,1.9-4.7,3.2
						c0,1.3,1.6,2.4,4.7,3.2c3.1,0.8,6.9,1.2,11.3,1.2c4.3,0,8.1-0.4,11.3-1.2c3.2-0.8,4.8-1.9,4.8-3.2c0-1.2-1.6-2.3-4.8-3.2
						c-0.4-0.1-0.9-0.3-1.3-0.3v-28.6c0.4-0.1,0.9-0.3,1.3-0.3c3.2-0.8,4.8-1.9,4.8-3.2c0-1.2-1.6-2.2-4.8-3.2
						c-0.4-0.1-0.9-0.2-1.3-0.3v-28.6C-93.7,409.3-93.3,409.2-92.8,409.2z M-97.2,478.5c-2,0.4-4.2,0.6-6.8,0.6
						c-2.6,0-4.9-0.2-6.8-0.6c-1.9-0.4-2.8-0.9-2.8-1.6c0-0.6,1-1.1,2.9-1.6c0.7-0.1,1.5-0.3,2.4-0.4v-29c1.3,0.1,2.7,0.1,4.3,0.1
						s3,0,4.5-0.1V475c0.8,0.1,1.6,0.2,2.3,0.3c2,0.5,3,1.1,3,1.6C-94.3,477.6-95.3,478.1-97.2,478.5z M-97.2,443.2
						c-2,0.4-4.2,0.6-6.8,0.6c-2.6,0-4.9-0.2-6.8-0.6c-1.9-0.4-2.8-0.9-2.8-1.6c0-0.6,0.9-1.1,2.8-1.6c1.9-0.5,4.1-0.7,6.8-0.7
						c2.6,0,4.8,0.2,6.8,0.7c2,0.5,3,1,3,1.6C-94.3,442.2-95.3,442.8-97.2,443.2z M-97.2,407.6c-0.7,0.2-1.5,0.4-2.3,0.4v29.2
						c-1.5-0.1-3-0.2-4.5-0.2s-3,0-4.3,0.1v-29.1c-0.9-0.1-1.7-0.2-2.4-0.4c-1.9-0.4-2.9-0.9-2.9-1.5c0-0.6,0.9-1.1,2.8-1.6
						c1.9-0.5,4.1-0.7,6.8-0.7c2.6,0,4.8,0.2,6.8,0.7c2,0.5,3,1,3,1.6C-94.3,406.7-95.3,407.2-97.2,407.6z"/>
		<path fill="#2FC906" transform="matrix(0.660028 0 0 0.660028 145.576901 -222.653794)" id="face-art-part-4-1" data-reference-color="#2FC906" data-source-id="" data-source-class="st7" d="M-136.8,455.2c3.2-0.8,4.8-1.9,4.8-3.2c0-1.2-1.6-2.2-4.8-3.1c-3.2-0.9-6.9-1.4-11.3-1.4
						c-4.4,0-8.1,0.5-11.3,1.4c-3.1,0.9-4.7,2-4.7,3.1c0,1.3,1.6,2.4,4.7,3.2c0.2,0.1,0.5,0.1,0.9,0.2v28.8c-0.4,0.1-0.7,0.1-0.9,0.2
						c-3.1,1-4.7,2-4.7,3.2c0,1.3,1.6,2.4,4.7,3.2c0.2,0.1,0.5,0.1,0.9,0.2v28.8c-0.4,0.1-0.7,0.1-0.9,0.2c-3.1,0.9-4.7,1.9-4.7,3.2
						c0,1.3,1.6,2.4,4.7,3.2c3.1,0.8,6.9,1.2,11.3,1.2c4.3,0,8.1-0.4,11.3-1.2c3.2-0.8,4.8-1.9,4.8-3.2c0-1.2-1.6-2.3-4.8-3.2
						c-0.4-0.1-0.9-0.3-1.3-0.3v-28.6c0.4-0.1,0.9-0.3,1.3-0.3c3.2-0.8,4.8-1.9,4.8-3.2c0-1.2-1.6-2.2-4.8-3.2
						c-0.4-0.1-0.9-0.2-1.3-0.3v-28.6C-137.7,455.3-137.2,455.2-136.8,455.2z M-141.2,524.5c-2,0.4-4.2,0.6-6.8,0.6
						c-2.6,0-4.9-0.2-6.8-0.6c-1.9-0.4-2.8-0.9-2.8-1.6c0-0.6,1-1.1,2.9-1.6c0.7-0.1,1.5-0.3,2.4-0.4v-29c1.3,0.1,2.7,0.1,4.3,0.1
						s3,0,4.5-0.1V521c0.8,0.1,1.6,0.2,2.3,0.3c2,0.5,3,1.1,3,1.6C-138.2,523.6-139.2,524.1-141.2,524.5z M-141.2,489.2
						c-2,0.4-4.2,0.6-6.8,0.6c-2.6,0-4.9-0.2-6.8-0.6c-1.9-0.4-2.8-0.9-2.8-1.6c0-0.6,0.9-1.1,2.8-1.6c1.9-0.5,4.1-0.7,6.8-0.7
						c2.6,0,4.8,0.2,6.8,0.7c2,0.5,3,1,3,1.6C-138.2,488.2-139.2,488.8-141.2,489.2z M-141.2,453.6c-0.7,0.2-1.5,0.4-2.3,0.4v29.2
						c-1.5-0.1-3-0.2-4.5-0.2s-3,0-4.3,0.1v-29.1c-0.9-0.1-1.7-0.2-2.4-0.4c-1.9-0.4-2.9-0.9-2.9-1.5c0-0.6,0.9-1.1,2.8-1.6
						c1.9-0.5,4.1-0.7,6.8-0.7c2.6,0,4.8,0.2,6.8,0.7c2,0.5,3,1,3,1.6C-138.2,452.7-139.2,453.2-141.2,453.6z"/>
		<path fill="#2FC906" transform="matrix(0.660028 0 0 0.660028 115.645806 -222.653794)" id="face-art-part-5-1" data-reference-color="#2FC906" data-source-id="" data-source-class="st7" d="M-48.9,455.2c3.2-0.8,4.8-1.9,4.8-3.2c0-1.2-1.6-2.2-4.8-3.1c-3.2-0.9-6.9-1.4-11.3-1.4
						c-4.4,0-8.1,0.5-11.3,1.4c-3.1,0.9-4.7,2-4.7,3.1c0,1.3,1.6,2.4,4.7,3.2c0.2,0.1,0.5,0.1,0.9,0.2v28.8c-0.4,0.1-0.7,0.1-0.9,0.2
						c-3.1,1-4.7,2-4.7,3.2c0,1.3,1.6,2.4,4.7,3.2c0.2,0.1,0.5,0.1,0.9,0.2v28.8c-0.4,0.1-0.7,0.1-0.9,0.2c-3.1,0.9-4.7,1.9-4.7,3.2
						c0,1.3,1.6,2.4,4.7,3.2c3.1,0.8,6.9,1.2,11.3,1.2c4.3,0,8.1-0.4,11.3-1.2c3.2-0.8,4.8-1.9,4.8-3.2c0-1.2-1.6-2.3-4.8-3.2
						c-0.4-0.1-0.9-0.3-1.3-0.3v-28.6c0.4-0.1,0.9-0.3,1.3-0.3c3.2-0.8,4.8-1.9,4.8-3.2c0-1.2-1.6-2.2-4.8-3.2
						c-0.4-0.1-0.9-0.2-1.3-0.3v-28.6C-49.8,455.3-49.3,455.2-48.9,455.2z M-53.3,524.5c-2,0.4-4.2,0.6-6.8,0.6
						c-2.6,0-4.9-0.2-6.8-0.6c-1.9-0.4-2.8-0.9-2.8-1.6c0-0.6,1-1.1,2.9-1.6c0.7-0.1,1.5-0.3,2.4-0.4v-29c1.3,0.1,2.7,0.1,4.3,0.1
						s3,0,4.5-0.1V521c0.8,0.1,1.6,0.2,2.3,0.3c2,0.5,3,1.1,3,1.6C-50.3,523.6-51.3,524.1-53.3,524.5z M-53.3,489.2
						c-2,0.4-4.2,0.6-6.8,0.6c-2.6,0-4.9-0.2-6.8-0.6c-1.9-0.4-2.8-0.9-2.8-1.6c0-0.6,0.9-1.1,2.8-1.6c1.9-0.5,4.1-0.7,6.8-0.7
						c2.6,0,4.8,0.2,6.8,0.7c2,0.5,3,1,3,1.6C-50.3,488.2-51.3,488.8-53.3,489.2z M-53.3,453.6c-0.7,0.2-1.5,0.4-2.3,0.4v29.2
						c-1.5-0.1-3-0.2-4.5-0.2s-3,0-4.3,0.1v-29.1c-0.9-0.1-1.7-0.2-2.4-0.4c-1.9-0.4-2.9-0.9-2.9-1.5c0-0.6,0.9-1.1,2.8-1.6
						c1.9-0.5,4.1-0.7,6.8-0.7c2.6,0,4.8,0.2,6.8,0.7c2,0.5,3,1,3,1.6C-50.3,452.7-51.3,453.2-53.3,453.6z"/>
	</g>
	<g id="number">
		<path fill="#FC1D05" data-generated-font="Gluten 800" transform="matrix(1.132322 0 0 1.709204 8.95559 31.470147)" d="M3.370 0.310L3.370 0.310Q2.850 0.310 2.380 0.255Q1.910 0.200 1.540 0.080L1.540 0.080Q0.950-0.120 0.570-0.495Q0.190-0.870 0.190-1.500L0.190-1.500Q0.190-2.400 0.760-2.855Q1.330-3.310 2.350-3.310L2.350-3.310Q2.630-3.310 3.120-3.300Q3.610-3.290 3.940-3.290L3.940-3.290Q4.370-3.290 4.800-3.330Q5.230-3.370 5.585-3.475Q5.940-3.580 6.155-3.765Q6.370-3.950 6.370-4.240L6.370-4.240Q6.370-4.690 6.130-4.860Q5.890-5.030 5.330-5.030L5.330-5.030Q4.760-5.030 4.165-4.885Q3.570-4.740 2.760-4.740L2.760-4.740Q1.750-4.740 1.095-5.210Q0.440-5.680 0.440-6.690L0.440-6.690Q0.440-7.280 0.535-7.895Q0.630-8.510 0.800-9.100Q0.970-9.690 1.210-10.170L1.210-10.170Q1.570-10.890 1.980-11.300Q2.390-11.710 3.035-11.885Q3.680-12.060 4.710-12.060L4.710-12.060Q5.270-12.060 5.810-12.050Q6.350-12.040 6.935-12.030Q7.520-12.020 8.170-12.020L8.170-12.020Q8.720-12.020 9.255-11.910Q9.790-11.800 10.145-11.465Q10.500-11.130 10.500-10.460L10.500-10.460Q10.500-9.810 10.045-9.480Q9.590-9.150 8.850-9.045Q8.110-8.940 7.270-8.940L7.270-8.940Q6.910-8.940 6.335-8.955Q5.760-8.970 5.390-8.970L5.390-8.970Q5.020-8.970 4.870-8.860Q4.720-8.750 4.650-8.570L4.650-8.570Q4.620-8.470 4.585-8.345Q4.550-8.220 4.525-8.085Q4.500-7.950 4.500-7.820L4.500-7.820Q4.500-7.670 4.545-7.610Q4.590-7.550 4.690-7.530Q4.790-7.510 4.930-7.510L4.930-7.510Q5.110-7.510 5.360-7.565Q5.610-7.620 5.975-7.670Q6.340-7.720 6.830-7.720L6.830-7.720Q8.080-7.720 8.975-7.335Q9.870-6.950 10.345-6.180Q10.820-5.410 10.820-4.250L10.820-4.250Q10.820-3.010 10.235-2.140Q9.650-1.270 8.625-0.730Q7.600-0.190 6.250 0.060Q4.900 0.310 3.370 0.310Z"/>
	</g>

</svg>
